# xmcd
#
# Track frame offsets:
#	150
#	10950
#	27232
#	42075
#	58580
#	71902
#	92002
#	103252
#	114941
#	136572
#	150218
#	166614
#	179134
#
# Disc length: 2591 seconds
#
# Revision: 0
# Processed by: cddbd v1.4PL0 Copyright (c) Steve Scherf et al.
# Submitted via: dBpowerAMP V4.0
#
DISCID=9d0a1d0d
DTITLE=The Denahys - The Denahys
DYEAR=1900
DGENRE=Aussie Country
TTITLE0=The Denahys - 01 - Lily White Hands
TTITLE1=The Denahys - 02 - Andy's Gone With Cattle
TTITLE2=The Denahys - 03 - Cajun Moon
TTITLE3=The Denahys - 04 - Fields Of Gold
TTITLE4=The Denahys - 05 - Branded Man
TTITLE5=The Denahys - 06 - Sayonara Nakamura
TTITLE6=The Denahys - 07 - Uncle Pen
TTITLE7=The Denahys - 08 - It Only Rains On Me
TTITLE8=The Denahys - 09 - Queen In The Sport Of Kings
TTITLE9=The Denahys - 10 - Angela
TTITLE10=The Denahys - 11 - I Will
TTITLE11=The Denahys - 12 - Floyd Country
TTITLE12=The Denahys - 13 - Ashokan Farewell
EXTD=Aussie Country
EXTT0=
EXTT1=
EXTT2=
EXTT3=
EXTT4=
EXTT5=
EXTT6=
EXTT7=
EXTT8=
EXTT9=
EXTT10=
EXTT11=
EXTT12=
PLAYORDER=
